<svg id="Layer_2" data-name="Layer 2" xmlns="http://www.w3.org/2000/svg" viewBox="0 0 1920 1080"><defs><style>.cls-1{fill:#1e190c;stroke:#000;stroke-miterlimit:10;stroke-width:3px;}.cls-2{fill:#040300;}.cls-3{fill:#261d0e;}.cls-4{fill:#1d1705;}.cls-5{fill:#040200;}.cls-6{fill:#5c440a;}.cls-7{fill:#2b291b;}.cls-8{fill:#171607;}</style></defs><title>table</title><polygon class="cls-1" points="379.2 1221.7 378.8 745.9 396.8 730.8 396.8 1201.4 379.2 1221.7"/><rect class="cls-2" x="-75.8" y="915.1" width="213.1" height="42.05"/><path d="M135.8,916.6v39H-74.3v-39H135.8m3-3H-77.3v45H138.8v-45Z"/><polygon class="cls-3" points="363.2 1198.7 363.2 732.2 378.2 746.5 377.7 1215.5 363.2 1198.7"/><path d="M364.7,735.7l12,11.5-.5,464.3-11.5-13.4V735.7m-3-7v470.5l17.5,20.4.5-473.7-18-17.2Z"/><polygon class="cls-1" points="150.9 965.4 369.3 798 370.3 743.5 150.9 906.6 150.9 965.4"/><polygon class="cls-4" points="147.6 916.5 162.6 904.4 162.6 1193.5 148.1 1203.9 147.6 916.5"/><path d="M161.1,907.5v285.2l-11.5,8.3-.5-283.7,12-9.8m3-6.3-18,14.6.5,291.1,17.5-12.7v-293Z"/><polygon class="cls-5" points="130.5 1193.5 130.5 904.4 145.5 916.5 145.1 1203.9 130.5 1193.5"/><path d="M132,907.5l12,9.8-.4,283.7-11.6-8.3V907.5m-3-6.3v293l17.6,12.7.4-291.1-18-14.6Z"/><polygon class="cls-6" points="-62.7 706.6 394.9 706.1 151 875.1 -63.2 875.4 -62.7 706.6"/><path d="M390.1,707.6l-239.6,166-212.2.3.5-165.8,451.3-.5m9.6-3-463.9.5-.5,171.8,216.1-.3,248.3-172Z"/><polygon class="cls-7" points="152.9 877.4 398.2 707.4 398.2 735.5 152.9 914.8 152.9 877.4"/><path d="M396.7,710.3v24.4L154.4,911.8V878.2L396.7,710.3m3-5.7-248.3,172v41.2L399.7,736.2V704.6Z"/><rect class="cls-8" x="-63.2" y="878.1" width="213.1" height="38.16"/><path d="M148.4,879.6v35.2H-61.7V879.6H148.4m3-3H-64.7v41.2H151.4V876.6Z"/></svg>